<mxfile host="app.diagrams.net" agent="Mozilla/5.0 (Macintosh; Intel Mac OS X 10_15_7) AppleWebKit/537.36 (KHTML, like Gecko) Chrome/135.0.0.0 Safari/537.36" version="26.2.15">
  <diagram name="Page-1" id="rW0-BKzgpaehJmEqv0lV">
    <mxGraphModel dx="976" dy="663" grid="1" gridSize="10" guides="1" tooltips="1" connect="1" arrows="1" fold="1" page="1" pageScale="1" pageWidth="850" pageHeight="1100" math="0" shadow="0">
      <root>
        <mxCell id="0" />
        <mxCell id="1" parent="0" />
        <mxCell id="qzPT9wrAOUX7c9yqiclR-1" value="In Game" style="swimlane;childLayout=stackLayout;resizeParent=1;resizeParentMax=0;horizontal=1;startSize=20;horizontalStack=0;html=1;" vertex="1" parent="1">
          <mxGeometry x="190" y="150" width="480" height="420" as="geometry" />
        </mxCell>
        <mxCell id="qzPT9wrAOUX7c9yqiclR-2" value="Location 1" style="swimlane;startSize=20;horizontal=0;html=1;" vertex="1" parent="qzPT9wrAOUX7c9yqiclR-1">
          <mxGeometry y="20" width="480" height="160" as="geometry" />
        </mxCell>
        <mxCell id="qzPT9wrAOUX7c9yqiclR-17" value="&lt;h1 style=&quot;margin-top: 0px;&quot;&gt;&lt;span style=&quot;background-color: transparent; color: light-dark(rgb(0, 0, 0), rgb(255, 255, 255));&quot;&gt;BACKPACKS&lt;/span&gt;&lt;/h1&gt;&lt;h1 style=&quot;margin-top: 0px;&quot;&gt;&lt;span style=&quot;font-size: 12px; font-weight: 400;&quot;&gt;backpack obstacles on the map which slow the kart down momentarily&lt;/span&gt;&lt;/h1&gt;" style="text;html=1;whiteSpace=wrap;overflow=hidden;rounded=0;" vertex="1" parent="qzPT9wrAOUX7c9yqiclR-2">
          <mxGeometry x="40" y="20" width="180" height="120" as="geometry" />
        </mxCell>
        <mxCell id="qzPT9wrAOUX7c9yqiclR-3" value="Location 2" style="swimlane;startSize=20;horizontal=0;html=1;" vertex="1" parent="qzPT9wrAOUX7c9yqiclR-1">
          <mxGeometry y="180" width="480" height="120" as="geometry" />
        </mxCell>
        <mxCell id="qzPT9wrAOUX7c9yqiclR-18" value="&lt;h1 style=&quot;margin-top: 0px;&quot;&gt;&lt;span style=&quot;background-color: transparent; color: light-dark(rgb(0, 0, 0), rgb(255, 255, 255));&quot;&gt;Tables&lt;/span&gt;&lt;/h1&gt;&lt;h1 style=&quot;margin-top: 0px;&quot;&gt;&lt;span style=&quot;font-size: 12px; font-weight: 400; background-color: transparent; color: light-dark(rgb(0, 0, 0), rgb(255, 255, 255));&quot;&gt;can damage the kart if run into the table --&amp;gt; set back a few seconds&lt;/span&gt;&lt;/h1&gt;" style="text;html=1;whiteSpace=wrap;overflow=hidden;rounded=0;" vertex="1" parent="qzPT9wrAOUX7c9yqiclR-3">
          <mxGeometry x="40" width="260" height="120" as="geometry" />
        </mxCell>
        <mxCell id="qzPT9wrAOUX7c9yqiclR-4" value="Location 3" style="swimlane;startSize=20;horizontal=0;html=1;" vertex="1" parent="qzPT9wrAOUX7c9yqiclR-1">
          <mxGeometry y="300" width="480" height="120" as="geometry" />
        </mxCell>
        <mxCell id="qzPT9wrAOUX7c9yqiclR-19" value="&lt;h1 style=&quot;margin-top: 0px;&quot;&gt;&lt;span style=&quot;background-color: transparent; color: light-dark(rgb(0, 0, 0), rgb(255, 255, 255));&quot;&gt;Squirrels&lt;/span&gt;&lt;/h1&gt;&lt;h1 style=&quot;margin-top: 0px;&quot;&gt;&lt;span style=&quot;background-color: transparent; color: light-dark(rgb(0, 0, 0), rgb(255, 255, 255)); font-size: 12px; font-weight: 400;&quot;&gt;you are disqualified from the game if you hit a squirrel&lt;/span&gt;&lt;/h1&gt;" style="text;html=1;whiteSpace=wrap;overflow=hidden;rounded=0;" vertex="1" parent="qzPT9wrAOUX7c9yqiclR-4">
          <mxGeometry x="40" width="260" height="120" as="geometry" />
        </mxCell>
        <mxCell id="qzPT9wrAOUX7c9yqiclR-15" value="" style="strokeWidth=2;html=1;shape=mxgraph.flowchart.annotation_2;align=left;labelPosition=right;pointerEvents=1;rotation=-180;" vertex="1" parent="1">
          <mxGeometry x="690" y="150" width="50" height="370" as="geometry" />
        </mxCell>
        <mxCell id="qzPT9wrAOUX7c9yqiclR-16" value="STUDENTS" style="text;html=1;align=center;verticalAlign=middle;whiteSpace=wrap;rounded=0;" vertex="1" parent="1">
          <mxGeometry x="760" y="320" width="60" height="30" as="geometry" />
        </mxCell>
      </root>
    </mxGraphModel>
  </diagram>
</mxfile>
